<svg width="35" height="44" viewBox="0 0 35 44" fill="none" xmlns="http://www.w3.org/2000/svg">
<mask id="mask0_2010_166" style="mask-type:luminance" maskUnits="userSpaceOnUse" x="0" y="0" width="35" height="44">
<path d="M34.31 0H0V44H34.31V0Z" fill="white"/>
</mask>
<g mask="url(#mask0_2010_166)">
<path d="M27.4448 18.246C27.3311 18.1326 27.2134 18.0315 27.0956 17.9303C26.312 17.2462 25.5528 16.7282 25.086 16.1616C25.0129 16.0765 24.9439 15.9834 24.8708 15.8822C23.5351 14.0204 22.2522 9.96481 25.5569 6.51236C25.3824 7.58493 25.3946 9.64105 26.8276 12.8022C26.8276 13.1381 26.8561 13.4902 26.8967 13.8666C27.1037 15.8134 27.2905 17.226 27.4407 18.2419L27.4448 18.246Z" fill="#EE731B"/>
<path d="M31.4437 6.45571C29.9537 6.75118 26.7383 7.9533 26.8276 12.8022C25.3945 9.6451 25.3823 7.58494 25.5569 6.51238C25.7152 6.33833 25.8816 6.17644 26.0644 6.01454C26.4135 5.69884 26.7627 5.43171 27.1118 5.20505L31.4437 6.45571Z" fill="#7B1714"/>
<path d="M30.575 13.219L31.2732 17.4487L26.8318 12.8022C26.7424 7.9533 29.9538 6.75523 31.4479 6.45572C27.1079 9.2161 30.5587 13.1988 30.5587 13.1988L30.575 13.215V13.219Z" fill="#E73E20"/>
<path d="M32.6616 15.5868C32.081 18.0396 31.2731 21.3423 31.2731 21.3423V17.4486L30.5748 13.219C31.4477 14.0366 32.1338 14.8299 32.6616 15.5868Z" fill="url(#paint0_linear_2010_166)"/>
<path d="M29.8116 26.4948C29.84 26.2964 29.8685 26.1021 29.8888 25.9119C29.9009 25.8269 29.905 25.75 29.9131 25.669C29.9172 25.6205 29.9253 25.5678 29.9294 25.5193C29.9416 25.414 29.9456 25.3048 29.9537 25.1995L31.2692 21.3383C31.2692 21.3383 32.0811 18.0355 32.6576 15.5868C37.3387 22.2733 29.8116 26.4948 29.8116 26.4948Z" fill="url(#paint1_linear_2010_166)"/>
<path d="M34.3099 5.20503C33.1042 5.5693 32.1704 5.99428 31.4518 6.4557H31.4477L27.1158 5.20503C27.9928 4.62624 28.8616 4.32268 29.6695 4.19721H29.6735C30.6114 4.04745 31.4761 4.1365 32.1947 4.30244C33.4817 4.61815 34.3099 5.20503 34.3099 5.20503Z" fill="#110F22"/>
<path d="M32.1947 4.30246C31.4762 4.13246 30.6154 4.04341 29.6736 4.19722H29.6695C29.6086 4.16889 29.158 4.01104 27.7857 4.44007C27.0468 4.14865 24.2902 3.05583 22.8124 2.29086C23.6122 2.36777 24.5459 2.3799 25.6381 2.29086C31.0904 1.84159 32.1988 4.3065 32.1988 4.3065L32.1947 4.30246Z" fill="#F9B218"/>
<path d="M27.7818 4.43603C27.1525 4.62626 26.3284 4.94601 25.2606 5.45195C21.6636 7.15188 18.7202 1.20615 18.6309 0.675934C18.6309 0.675934 19.6215 1.98731 22.8003 2.28682H22.8044C24.2862 3.0518 27.0429 4.14461 27.7778 4.43603H27.7818Z" fill="#E73E20"/>
<path d="M25.4027 20.7189L23.3159 23.872L11.6885 31.5742C11.7291 31.473 11.7656 31.3678 11.8102 31.2667C11.8508 31.1655 11.8955 31.0603 11.9442 30.951C12.0335 30.7608 12.131 30.5624 12.2366 30.3681C12.265 30.3074 12.2974 30.2467 12.3339 30.1819C12.4355 30.0079 12.541 29.8298 12.6506 29.6477C12.7237 29.5343 12.7927 29.4251 12.8699 29.3118C12.943 29.1984 13.0201 29.0811 13.1013 28.9677C13.1013 28.9677 14.5547 27.1342 17.4697 25.0012C18.2289 24.4386 19.0978 23.8558 20.0599 23.2891C20.746 22.8803 21.4849 22.4715 22.2725 22.0829C22.4755 21.9818 22.6786 21.8806 22.8856 21.7875C22.9303 21.7632 22.9708 21.743 23.0155 21.7268C23.3241 21.581 23.6407 21.4354 23.9655 21.3018C24.2903 21.1561 24.6232 21.0225 24.9602 20.893C25.0576 20.8485 25.1591 20.8161 25.2525 20.7756C25.3012 20.7513 25.354 20.7351 25.4027 20.7189Z" fill="url(#paint2_linear_2010_166)"/>
<path d="M23.3157 23.872L21.8339 27.3487C20.7418 27.964 19.5847 28.7167 18.5291 29.5991L11.1442 34.5006C11.128 34.0797 11.1605 33.6425 11.2336 33.1933C11.2376 33.1811 11.2376 33.1771 11.2376 33.1771C11.262 33.0354 11.2864 32.9059 11.3147 32.7683C11.3188 32.7562 11.3188 32.7399 11.3269 32.7278C11.3553 32.5862 11.3959 32.4485 11.4406 32.3028C11.465 32.2138 11.4894 32.1248 11.5178 32.0316C11.53 31.9993 11.5421 31.9709 11.5502 31.9345C11.5543 31.9224 11.5624 31.9061 11.5624 31.894C11.5949 31.7888 11.6355 31.6795 11.6801 31.5702L23.3076 23.8679L23.3157 23.872Z" fill="url(#paint3_linear_2010_166)"/>
<path d="M18.5293 29.5991C16.5642 31.2424 14.9484 33.3471 14.6845 35.9212L13.0809 39.3535C12.0456 38.1069 11.1809 36.4798 11.1443 34.5006L18.5293 29.5991Z" fill="url(#paint4_linear_2010_166)"/>
<path d="M16.6292 42.2556C16.5115 42.1989 14.6196 41.1911 13.085 39.3535L14.6886 35.9254C14.4897 37.7871 15.0134 39.8959 16.6292 42.2556Z" fill="#50C0DA"/>
<path d="M10.5801 30.5139C8.98859 33.683 8.68411 38.0745 8.64352 40.3492C7.45807 39.0419 6.51615 37.3379 6.35376 35.1725L10.5801 30.5179V30.5139Z" fill="#7B1714"/>
<path d="M16.7713 25.0943L12.9348 27.9154L10.5841 30.5139L6.35778 35.1684C6.26846 33.9178 6.43492 32.5133 6.97082 30.9429C6.97082 30.9429 8.46081 26.2599 16.7754 25.0903L16.7713 25.0943Z" fill="#EE731B"/>
<path d="M14.315 44C14.116 43.9393 10.929 42.8789 8.64331 40.3492C8.6839 38.0786 8.98846 33.683 10.5799 30.5139L12.9305 27.9154L16.7671 25.0943C16.9904 25.0619 17.2299 25.0336 17.4654 25.0053C14.5505 27.1383 13.097 28.9717 13.097 28.9717C13.0199 29.0851 12.9387 29.2024 12.8656 29.3158C12.7885 29.4291 12.7194 29.5384 12.6463 29.6518C12.5408 29.8298 12.4312 30.012 12.3297 30.186C12.2973 30.2467 12.2607 30.3074 12.2323 30.3722C12.1267 30.5705 12.0293 30.7648 11.9399 30.955C11.8912 31.0603 11.8425 31.1695 11.806 31.2707C11.7613 31.3719 11.7207 31.4772 11.6842 31.5783C11.6395 31.6917 11.5989 31.7969 11.5664 31.9021C11.5664 31.9143 11.5624 31.9304 11.5543 31.9426C11.5421 31.975 11.5299 32.0033 11.5218 32.0397C11.4934 32.1288 11.465 32.2178 11.4446 32.3109C11.4 32.4566 11.3594 32.5983 11.331 32.7359C11.3269 32.748 11.3269 32.7642 11.3188 32.7764C11.2904 32.918 11.262 33.0475 11.2417 33.1852C11.2417 33.1852 11.2417 33.1892 11.2376 33.2014C11.0914 33.5616 8.75704 39.6368 14.315 44.0081V44Z" fill="#E73E20"/>
<path d="M25.4026 20.719C25.3539 20.7352 25.3011 20.7514 25.2525 20.7756L18.7241 16.8334L18.3872 16.6918L4.6242 11.082L1.1124 9.65325L0 5.24957L12.2162 11.9157L15.9878 13.9759L16.9743 14.5142L17.6564 14.8826L19.9624 16.6229L25.4026 20.719Z" fill="url(#paint5_linear_2010_166)"/>
<path d="M24.9561 20.893C24.6192 21.0226 24.2862 21.1561 23.9614 21.3018C23.6367 21.4354 23.32 21.5811 23.0114 21.7268C22.9668 21.743 22.9262 21.7673 22.8816 21.7875C22.6745 21.8847 22.4715 21.9859 22.2685 22.083L21.8707 21.9939L17.8757 18.0598L20.5309 19.1202L24.9602 20.889L24.9561 20.893Z" fill="#7B1714"/>
<path d="M17.7944 21.059L15.6548 20.5651L8.57031 17.8979L2.96362 12.1181L5.43609 13.1057L12.7723 16.032L17.7944 21.059Z" fill="#F9B218"/>
<path d="M8.57033 17.8979L2.55359 15.6313L1.48584 11.5272L2.96364 12.1181L8.57033 17.8979Z" fill="#EE731B"/>
<path d="M25.2484 20.7756C25.151 20.8161 25.0495 20.8485 24.9561 20.893L20.5268 19.1243L17.8717 18.0638L12.7724 16.032L5.43625 13.1017L4.62427 11.0779L18.3832 16.6877L18.7201 16.8293L25.2484 20.7716V20.7756Z" fill="url(#paint6_linear_2010_166)"/>
<path d="M12.1228 22.3298L7.57568 21.7713L4.32373 18.3715L8.52979 19.1849H8.5379L12.1228 22.3298Z" fill="#F9B218"/>
<path d="M17.2097 22.9451L12.1227 22.3299L8.53784 19.185L13.6857 20.1847L17.2097 22.9451Z" fill="#E73E20"/>
<path d="M22.2683 22.0871C21.4807 22.4756 20.7418 22.8844 20.0557 23.2932L17.2097 22.9451L13.6858 20.1847L15.6548 20.5652L17.7944 21.059L21.8705 21.9939L22.2683 22.083V22.0871Z" fill="#7B1714"/>
<path d="M16.9703 14.5142L15.9878 13.9759L12.2161 11.9157L6.61353 5.99025V0L10.0969 4.88124L16.9703 14.5142Z" fill="url(#paint7_linear_2010_166)"/>
<path d="M29.9863 24.4507C29.9863 24.5802 29.9823 24.7017 29.9741 24.8393C29.9701 24.9567 29.962 25.0821 29.9498 25.2036C29.9376 25.3533 29.9255 25.5112 29.9092 25.673C29.9052 25.75 29.897 25.8309 29.8849 25.9159C29.8605 26.1062 29.8361 26.3044 29.8077 26.4988L23.3079 30.9429C23.4255 30.7931 25.3175 28.3606 26.5192 25.2481C26.8806 24.3172 27.1769 23.3256 27.3474 22.3096C27.4773 21.5527 27.5342 20.7797 27.4895 20.0107C27.4489 19.3104 27.3271 18.6143 27.0917 17.9343C27.2093 18.0355 27.3271 18.1367 27.4408 18.25C27.5463 18.3512 27.656 18.4524 27.7615 18.5657C27.8346 18.6345 27.9036 18.7074 27.9685 18.7843L27.9807 18.7964C28.0051 18.8207 28.0213 18.8409 28.0416 18.8652C28.1107 18.9381 28.1756 19.015 28.2406 19.1C28.2974 19.1566 28.3421 19.2133 28.3868 19.2741C28.4882 19.4036 28.5857 19.5331 28.6791 19.6707C28.8699 19.95 29.0485 20.2535 29.2068 20.5854C29.4058 20.9901 29.5682 21.4313 29.6981 21.9251C29.7427 22.0991 29.7833 22.2773 29.8158 22.4635C29.8442 22.6092 29.8727 22.7589 29.893 22.9167C29.897 22.9613 29.9052 23.0139 29.9092 23.0665C29.9255 23.2082 29.9376 23.3458 29.9539 23.4996C29.9539 23.5603 29.9579 23.6291 29.966 23.6979C29.9782 23.9408 29.9823 24.1917 29.9823 24.4548L29.9863 24.4507Z" fill="url(#paint8_linear_2010_166)"/>
<path d="M27.0956 17.9303L26.5556 20.3102L25.3783 25.673C24.5054 26.0171 23.2184 26.5756 21.834 27.3487L23.3159 23.872L25.4027 20.719L22.3131 14.2512L24.8749 15.8822C24.9479 15.9834 25.0169 16.0806 25.09 16.1616C25.5569 16.7282 26.3161 17.2462 27.0997 17.9303H27.0956Z" fill="#110F22"/>
<path d="M25.4027 20.719L19.9583 16.6229L17.6523 14.8826L16.9703 14.5142L10.0969 4.88126L22.0086 14.0528L22.305 14.243L22.3131 14.2512L25.4027 20.719Z" fill="url(#paint9_linear_2010_166)"/>
<path d="M27.3554 22.3056C27.1849 23.3215 26.8885 24.3132 26.5272 25.2441C26.5272 25.2441 26.0887 25.3857 25.3783 25.669L26.5556 20.3062L27.0956 17.9263C27.331 18.6062 27.4569 19.3024 27.4935 20.0026C27.5381 20.7716 27.4813 21.5447 27.3513 22.3016L27.3554 22.3056Z" fill="#07101A"/>
<path d="M31.2692 17.4487V21.3423L29.9538 25.2036C29.9659 25.0821 29.97 24.9567 29.9781 24.8393C29.9822 24.7057 29.9903 24.5802 29.9903 24.4507C29.9903 24.1877 29.9863 23.9327 29.9741 23.6939C29.97 23.6251 29.9619 23.5603 29.9619 23.4956C29.9456 23.3458 29.9335 23.2041 29.9172 23.0625C29.9132 23.0058 29.905 22.9572 29.901 22.9127C29.8766 22.7548 29.8522 22.6051 29.8239 22.4594C29.7914 22.2733 29.7508 22.0951 29.7061 21.9211C29.5762 21.4273 29.4138 20.9861 29.2149 20.5814C29.0565 20.2495 28.8779 19.9459 28.6871 19.6666C28.5896 19.525 28.4963 19.3954 28.3948 19.27C28.3501 19.2093 28.3055 19.1526 28.2486 19.0959C28.2162 19.0393 28.1634 18.9826 28.1187 18.9341C28.0943 18.9057 28.074 18.8855 28.0497 18.8612C28.0254 18.8369 28.0091 18.8167 27.9888 18.7924L27.9766 18.7802C27.9157 18.7074 27.8426 18.6305 27.7696 18.5617C27.664 18.4483 27.5544 18.3472 27.4488 18.246C27.2986 17.23 27.1118 15.8175 26.9048 13.8706C26.8642 13.4943 26.8358 13.1422 26.8358 12.8062L31.2773 17.4527L31.2692 17.4487Z" fill="#F9B218"/>
<path d="M21.8663 21.9979L17.7943 21.059L12.7722 16.032L17.8714 18.0638L21.8663 21.9979Z" fill="#E73E20"/>
</g>
<defs>
<linearGradient id="paint0_linear_2010_166" x1="31.7238" y1="13.4457" x2="31.0781" y2="19.1895" gradientUnits="userSpaceOnUse">
<stop stop-color="#50C0DA"/>
<stop offset="1" stop-color="#1B499A"/>
</linearGradient>
<linearGradient id="paint1_linear_2010_166" x1="34.4196" y1="15.5099" x2="30.5351" y2="26.3566" gradientUnits="userSpaceOnUse">
<stop stop-color="#50C0DA"/>
<stop offset="0.49" stop-color="#1B499A"/>
<stop offset="1" stop-color="#110F22"/>
</linearGradient>
<linearGradient id="paint2_linear_2010_166" x1="9.55293" y1="30.6191" x2="24.5878" y2="22.8956" gradientUnits="userSpaceOnUse">
<stop stop-color="#1B499A"/>
<stop offset="1" stop-color="#110F22"/>
</linearGradient>
<linearGradient id="paint3_linear_2010_166" x1="10.6164" y1="39.2604" x2="20.7943" y2="22.9292" gradientUnits="userSpaceOnUse">
<stop offset="0.23" stop-color="#50C0DA"/>
<stop offset="0.49" stop-color="#1B499A"/>
<stop offset="0.89" stop-color="#110F22"/>
</linearGradient>
<linearGradient id="paint4_linear_2010_166" x1="13.8197" y1="43.4698" x2="15.0182" y2="29.9425" gradientUnits="userSpaceOnUse">
<stop stop-color="#50C0DA"/>
<stop offset="1" stop-color="#1B499A"/>
</linearGradient>
<linearGradient id="paint5_linear_2010_166" x1="-0.0527782" y1="7.1276" x2="21.3868" y2="18.5757" gradientUnits="userSpaceOnUse">
<stop stop-color="#50C0DA"/>
<stop offset="0.49" stop-color="#1B499A"/>
<stop offset="1" stop-color="#110F22"/>
</linearGradient>
<linearGradient id="paint6_linear_2010_166" x1="4.01123" y1="11.5272" x2="23.975" y2="20.0953" gradientUnits="userSpaceOnUse">
<stop stop-color="#50C0DA"/>
<stop offset="0.49" stop-color="#1B499A"/>
<stop offset="1" stop-color="#110F22"/>
</linearGradient>
<linearGradient id="paint7_linear_2010_166" x1="6.62977" y1="3.01536" x2="18.0242" y2="15.5608" gradientUnits="userSpaceOnUse">
<stop stop-color="#50C0DA"/>
<stop offset="0.49" stop-color="#1B499A"/>
<stop offset="1" stop-color="#110F22"/>
</linearGradient>
<linearGradient id="paint8_linear_2010_166" x1="23.7991" y1="32.6792" x2="28.1452" y2="22.8462" gradientUnits="userSpaceOnUse">
<stop stop-color="#50C0DA"/>
<stop offset="0.49" stop-color="#1B499A"/>
<stop offset="1" stop-color="#110F22"/>
</linearGradient>
<linearGradient id="paint9_linear_2010_166" x1="14.2989" y1="6.65809" x2="20.2211" y2="15.7572" gradientUnits="userSpaceOnUse">
<stop stop-color="#50C0DA"/>
<stop offset="0.49" stop-color="#1B499A"/>
<stop offset="1" stop-color="#110F22"/>
</linearGradient>
</defs>
</svg>
