<svg width="13" height="10" viewBox="0 0 13 10" fill="none" xmlns="http://www.w3.org/2000/svg">
<path fill-rule="evenodd" clip-rule="evenodd" d="M11.5 -3.8147e-06H1.5C1.07794 -3.8147e-06 0.702983 0.211995 0.476367 0.534766C0.547247 0.557222 0.615964 0.590683 0.680097 0.635576L6.5 4.70951L12.3199 0.635576C12.384 0.590683 12.4528 0.557225 12.5236 0.534769C12.297 0.211996 11.9221 -3.8147e-06 11.5 -3.8147e-06ZM12.75 2.16549L6.9301 6.23942C6.67186 6.42019 6.32814 6.42019 6.0699 6.23942L0.25 2.16549V8.75C0.25 9.4375 0.8125 10 1.5 10H11.5C12.1875 10 12.75 9.4375 12.75 8.75V2.16549Z" fill="#8D979E"/>
</svg>
