<svg width="111" height="15" viewBox="0 0 111 15" fill="none" xmlns="http://www.w3.org/2000/svg">
<path d="M0.0202637 3.55054V0.933344H11.2386V3.55054H7.21405V14.2667H4.0514V3.55054H0.0202637ZM24.7268 7.6C24.7268 9.06704 24.446 10.3105 23.8843 11.3305C23.3227 12.3505 22.5622 13.1252 21.6031 13.6547C20.6482 14.1842 19.5767 14.449 18.3886 14.449C17.1961 14.449 16.1225 14.182 15.1676 13.6482C14.2128 13.1143 13.4545 12.3396 12.8929 11.3239C12.3355 10.304 12.0568 9.06264 12.0568 7.6C12.0568 6.13297 12.3355 4.88946 12.8929 3.86954C13.4545 2.84954 14.2128 2.07485 15.1676 1.54531C16.1225 1.01577 17.1961 0.751038 18.3886 0.751038C19.5767 0.751038 20.6482 1.01577 21.6031 1.54531C22.5622 2.07485 23.3227 2.84954 23.8843 3.86954C24.446 4.88946 24.7268 6.13297 24.7268 7.6ZM21.4475 7.6C21.4475 6.73196 21.3244 5.9984 21.0781 5.39949C20.8361 4.8005 20.4862 4.34694 20.0282 4.03879C19.5746 3.73064 19.028 3.57657 18.3886 3.57657C17.7534 3.57657 17.2069 3.73064 16.7489 4.03879C16.2909 4.34694 15.9388 4.8005 15.6926 5.39949C15.4506 5.9984 15.3296 6.73196 15.3296 7.6C15.3296 8.46805 15.4506 9.20153 15.6926 9.80052C15.9388 10.3995 16.2909 10.8531 16.7489 11.1612C17.2069 11.4694 17.7534 11.6234 18.3886 11.6234C19.028 11.6234 19.5746 11.4694 20.0282 11.1612C20.4862 10.8531 20.8361 10.3995 21.0781 9.80052C21.3244 9.20153 21.4475 8.46805 21.4475 7.6ZM34.6294 0.933344H37.8312V9.53358C37.8312 10.5275 37.5954 11.3934 37.1246 12.1313C36.6537 12.8648 35.9967 13.4333 35.1543 13.837C34.3119 14.2363 33.3337 14.4359 32.219 14.4359C31.0911 14.4359 30.1056 14.2363 29.2632 13.837C28.4208 13.4333 27.7667 12.8648 27.2995 12.1313C26.833 11.3934 26.5994 10.5275 26.5994 9.53358V0.933344H29.8078V9.25367C29.8078 9.71369 29.907 10.1238 30.1056 10.4841C30.3093 10.8443 30.5918 11.1265 30.9546 11.3305C31.3181 11.5345 31.7393 11.6365 32.219 11.6365C32.6986 11.6365 33.1176 11.5345 33.476 11.3305C33.8388 11.1265 34.1221 10.8443 34.325 10.4841C34.5279 10.1238 34.6294 9.71369 34.6294 9.25367V0.933344ZM39.8416 14.2667V0.933344H45.3246C46.3182 0.933344 47.1759 1.11345 47.8972 1.47366C48.6235 1.82962 49.1827 2.34178 49.5762 3.01014C49.9689 3.67425 50.166 4.462 50.166 5.37346C50.166 6.2979 49.9645 7.08352 49.563 7.73017C49.1608 8.37257 48.5907 8.86302 47.8519 9.20153C47.1131 9.53578 46.2386 9.70284 45.2276 9.70284H41.7601V7.16382H44.6311C45.1151 7.16382 45.5188 7.1009 45.8429 6.97498C46.1714 6.84482 46.4196 6.64946 46.5883 6.38905C46.7569 6.12432 46.8409 5.78574 46.8409 5.37346C46.8409 4.9611 46.7569 4.6204 46.5883 4.35126C46.4196 4.07788 46.1714 3.87386 45.8429 3.7393C45.5144 3.6004 45.1107 3.53096 44.6311 3.53096H43.05V14.2667H39.8416ZM47.3139 8.17288L50.6193 14.2667H47.1197L43.8792 8.17288H47.3139ZM64.5565 5.28883C64.4827 5.01537 64.3747 4.77447 64.2324 4.56613C64.09 4.35346 63.9148 4.17336 63.7075 4.02581C63.5002 3.87819 63.2622 3.76753 62.9943 3.69376C62.7264 3.61566 62.4329 3.57657 62.1132 3.57657C61.4693 3.57657 60.9116 3.73284 60.4407 4.04532C59.9743 4.35779 59.6137 4.81356 59.3589 5.41247C59.1041 6.00713 58.9764 6.72976 58.9764 7.5805C58.9764 8.43549 59.0997 9.16464 59.3457 9.76796C59.5918 10.3713 59.9487 10.8314 60.4152 11.1482C60.8817 11.465 61.4474 11.6234 62.1132 11.6234C62.7008 11.6234 63.1972 11.528 63.6038 11.337C64.0141 11.1416 64.3251 10.8661 64.5368 10.5102C64.7485 10.1543 64.8543 9.7354 64.8543 9.25367L65.4507 9.32524H62.2234V6.97498H67.9459V8.73931C67.9459 9.93288 67.6933 10.955 67.1874 11.8057C66.6866 12.6564 65.9953 13.3097 65.1135 13.7654C64.2367 14.2211 63.2279 14.449 62.0869 14.449C60.8211 14.449 59.7086 14.1734 58.7493 13.6221C57.7901 13.0709 57.0426 12.2853 56.5075 11.2654C55.9717 10.241 55.7038 9.02575 55.7038 7.61951C55.7038 6.52574 55.8658 5.55569 56.1892 4.70935C56.5134 3.85868 56.9652 3.13818 57.5441 2.54792C58.1274 1.95766 58.8012 1.51062 59.5662 1.2068C60.3349 0.902984 61.1627 0.751038 62.0482 0.751038C62.8176 0.751038 63.5323 0.861697 64.1937 1.08309C64.8587 1.30441 65.4464 1.61696 65.9559 2.02058C66.4706 2.42421 66.8874 2.90381 67.2071 3.45938C67.5268 4.01496 67.7254 4.62472 67.8035 5.28883H64.5565ZM77.8666 0.933344H81.0676V9.53358C81.0676 10.5275 80.8326 11.3934 80.3617 12.1313C79.8909 12.8648 79.2339 13.4333 78.3914 13.837C77.549 14.2363 76.5701 14.4359 75.4554 14.4359C74.3275 14.4359 73.3428 14.2363 72.5003 13.837C71.6579 13.4333 71.0031 12.8648 70.5366 12.1313C70.0702 11.3934 69.8366 10.5275 69.8366 9.53358V0.933344H73.0449V9.25367C73.0449 9.71369 73.1442 10.1238 73.3428 10.4841C73.5457 10.8443 73.8289 11.1265 74.1918 11.3305C74.5546 11.5345 74.9758 11.6365 75.4554 11.6365C75.935 11.6365 76.354 11.5345 76.7124 11.3305C77.076 11.1265 77.3585 10.8443 77.5614 10.4841C77.7651 10.1238 77.8666 9.71369 77.8666 9.25367V0.933344ZM86.2864 0.933344V14.2667H83.0788V0.933344H86.2864ZM93.2068 14.2667H88.3005V0.933344H93.2002C94.5522 0.933344 95.7165 1.20028 96.6933 1.73414C97.6737 2.26361 98.4299 3.02752 98.9614 4.02581C99.4928 5.0197 99.7585 6.20894 99.7585 7.59348C99.7585 8.98241 99.4928 10.176 98.9614 11.1742C98.4343 12.1725 97.6802 12.9385 96.6998 13.4724C95.7187 14.0019 94.5544 14.2667 93.2068 14.2667ZM91.5088 11.5193H93.0834C93.8266 11.5193 94.4551 11.3934 94.969 11.1416C95.488 10.8856 95.8786 10.4711 96.1421 9.8982C96.41 9.32092 96.5443 8.55268 96.5443 7.59348C96.5443 6.63428 96.41 5.87036 96.1421 5.30181C95.8742 4.72893 95.4793 4.31658 94.9566 4.06482C94.4376 3.80874 93.7981 3.6807 93.0382 3.6807H91.5088V11.5193ZM101.632 14.2667V0.933344H110.886V3.55054H104.839V6.28492H110.413V8.90856H104.839V11.6495H110.886V14.2667H101.632Z" fill="#0094FF"/>
</svg>
