<svg width="112" height="10" viewBox="0 0 112 10" fill="none" xmlns="http://www.w3.org/2000/svg">
<path d="M5.27649 1.79996V8.19998H4.13178V2.76246H1.34449V8.19998H0.199707V1.79996H5.27649ZM7.22617 8.28747V7.3125H7.59015C7.75404 7.3125 7.8888 7.28852 7.99457 7.24063C8.10035 7.19267 8.18539 7.12396 8.24963 7.03435C8.31599 6.94481 8.37096 6.8406 8.41454 6.72188L8.49849 6.5062L6.2214 1.79996H7.42838L9.01489 5.22499L10.3868 1.79996H11.5751L9.37887 7.01873C9.27725 7.24371 9.16009 7.45308 9.02737 7.64683C8.89466 7.83852 8.72143 7.99369 8.50783 8.11249C8.29635 8.22917 8.02048 8.28747 7.68038 8.28747H7.22617ZM12.5193 2.77185V1.79996H17.6022V2.77185H15.6331V8.19998H14.4884V2.77185H12.5193ZM18.5822 8.19998V1.79996H22.7257V2.77185H19.7363V4.50934H22.5111V5.48122H19.7363V7.2281H22.7506V8.19998H18.5822ZM24.0711 1.79996H25.2066V7.23748H27.1725V1.79996H28.3018V7.23748H30.2523V1.79996H31.3816V8.19998H24.0711V1.79996ZM32.8088 8.19998V1.79996H36.9523V2.77185H33.9629V4.50934H36.7377V5.48122H33.9629V7.2281H36.9771V8.19998H32.8088ZM43.5829 3.95934H42.4192C42.3864 3.76772 42.3251 3.59788 42.236 3.44996C42.147 3.3 42.036 3.17291 41.9031 3.0687C41.7703 2.96457 41.6192 2.88647 41.4491 2.83433C41.2812 2.78021 41.0994 2.75307 40.9045 2.75307C40.5585 2.75307 40.2511 2.84064 39.984 3.01561C39.7161 3.18853 39.5065 3.4427 39.3554 3.77813C39.2036 4.11143 39.1284 4.51872 39.1284 5.00001C39.1284 5.48958 39.2036 5.90208 39.3554 6.23751C39.5087 6.57081 39.7182 6.82293 39.984 6.99372C40.2511 7.16246 40.557 7.24687 40.9016 7.24687C41.0921 7.24687 41.2702 7.22186 41.4367 7.17185C41.6046 7.11978 41.7549 7.04373 41.8878 6.94371C42.0221 6.84375 42.1353 6.72085 42.2265 6.57499C42.32 6.42913 42.3842 6.26251 42.4192 6.075L43.5829 6.08124C43.5391 6.38542 43.4449 6.67084 43.2996 6.93748C43.1565 7.20411 42.9689 7.43959 42.7368 7.64375C42.5047 7.84578 42.2331 8.00418 41.9214 8.11873C41.6104 8.23122 41.2651 8.28747 40.8855 8.28747C40.3256 8.28747 39.8263 8.1573 39.3861 7.89682C38.9466 7.63642 38.6006 7.26044 38.3473 6.76874C38.0947 6.27704 37.9677 5.68751 37.9677 5.00001C37.9677 4.31038 38.0955 3.72078 38.3502 3.23121C38.6057 2.73958 38.9532 2.36353 39.3927 2.10312C39.8321 1.84272 40.33 1.71248 40.8855 1.71248C41.2403 1.71248 41.5703 1.76249 41.8747 1.86252C42.1798 1.96247 42.4514 2.10936 42.6901 2.3031C42.9288 2.4948 43.1244 2.7302 43.2777 3.00938C43.4332 3.28643 43.5354 3.60308 43.5829 3.95934ZM44.3596 2.77185V1.79996H49.4426V2.77185H47.4738V8.19998H46.3291V2.77185H44.3596ZM50.423 8.19998V1.79996H52.8619C53.3218 1.79996 53.7043 1.87293 54.0094 2.01871C54.316 2.16245 54.5453 2.35935 54.6971 2.60934C54.8504 2.85934 54.9271 3.14269 54.9271 3.45935C54.9271 3.71975 54.8774 3.94269 54.7781 4.12807C54.6781 4.31141 54.5445 4.46042 54.3766 4.57497C54.2087 4.68959 54.0211 4.77187 53.8138 4.82188V4.88436C54.0394 4.89683 54.2562 4.96664 54.4635 5.09373C54.673 5.21876 54.8438 5.39579 54.9767 5.62496C55.1096 5.85412 55.176 6.13125 55.176 6.45626C55.176 6.78751 55.0964 7.08539 54.9366 7.34998C54.7767 7.61251 54.5365 7.81975 54.2146 7.97184C53.8934 8.12393 53.489 8.19998 53.0013 8.19998H50.423ZM51.5771 7.23125H52.8181C53.2371 7.23125 53.5386 7.15102 53.7233 6.99064C53.9102 6.82813 54.0029 6.61979 54.0029 6.36562C54.0029 6.17605 53.9569 6.00519 53.8635 5.8531C53.77 5.69895 53.6371 5.5781 53.4649 5.49061C53.2926 5.401 53.0875 5.35626 52.8495 5.35626H51.5771V7.23125ZM51.5771 4.52188H52.7188C52.9174 4.52188 53.0969 4.48543 53.2568 4.41246C53.416 4.33752 53.5415 4.23228 53.6328 4.09684C53.7262 3.95934 53.7729 3.79683 53.7729 3.60939C53.7729 3.36145 53.6861 3.15729 53.5116 2.99684C53.3393 2.83646 53.0838 2.75623 52.7436 2.75623H51.5771V4.52188ZM56.7491 8.28747V7.3125H57.1134C57.2769 7.3125 57.412 7.28852 57.5178 7.24063C57.6237 7.19267 57.7084 7.12396 57.7726 7.03435C57.839 6.94481 57.8938 6.8406 57.9376 6.72188L58.0215 6.5062L55.7447 1.79996H56.9513L58.5376 5.22499L59.91 1.79996H61.0985L58.9019 7.01873C58.8004 7.24371 58.6829 7.45308 58.5508 7.64683C58.4179 7.83852 58.2442 7.99369 58.031 8.11249C57.8193 8.22917 57.5434 8.28747 57.2032 8.28747H56.7491ZM61.9205 1.79996H63.0651V6.16249H63.1242L66.1194 1.79996H67.156V8.19998H66.0019V3.84061H65.9486L62.9439 8.19998H61.9205V1.79996ZM65.1551 0.149963H65.9982C65.9982 0.514577 65.8668 0.810404 65.6033 1.03752C65.342 1.2625 64.9872 1.37499 64.5397 1.37499C64.0959 1.37499 63.7418 1.2625 63.479 1.03752C63.2177 0.810404 63.0877 0.514577 63.0899 0.149963H63.9265C63.9265 0.300003 63.9725 0.434348 64.0637 0.553075C64.1572 0.669748 64.3156 0.728122 64.5397 0.728122C64.7594 0.728122 64.9156 0.669748 65.0091 0.553075C65.1047 0.436475 65.1536 0.302057 65.1551 0.149963ZM76.0394 3.95934H74.8758C74.8429 3.76772 74.7816 3.59788 74.6925 3.44996C74.6035 3.3 74.4925 3.17291 74.3596 3.0687C74.2268 2.96457 74.0757 2.88647 73.9056 2.83433C73.737 2.78021 73.5559 2.75307 73.361 2.75307C73.0143 2.75307 72.7077 2.84064 72.4405 3.01561C72.1726 3.18853 71.9631 3.4427 71.812 3.77813C71.6601 4.11143 71.5849 4.51872 71.5849 5.00001C71.5849 5.48958 71.6601 5.90208 71.812 6.23751C71.9653 6.57081 72.1748 6.82293 72.4405 6.99372C72.7077 7.16246 73.0135 7.24687 73.3581 7.24687C73.5486 7.24687 73.7267 7.22186 73.8932 7.17185C74.0611 7.11978 74.2115 7.04373 74.3436 6.94371C74.4786 6.84375 74.5918 6.72085 74.6831 6.57499C74.7765 6.42913 74.8407 6.26251 74.8758 6.075L76.0394 6.08124C75.9956 6.38542 75.9014 6.67084 75.7561 6.93748C75.6131 7.20411 75.4255 7.43959 75.1933 7.64375C74.9612 7.84578 74.6889 8.00418 74.3779 8.11873C74.0669 8.23122 73.7216 8.28747 73.342 8.28747C72.7821 8.28747 72.2828 8.1573 71.8426 7.89682C71.4032 7.63642 71.0571 7.26044 70.8038 6.76874C70.5505 6.27704 70.4242 5.68751 70.4242 5.00001C70.4242 4.31038 70.552 3.72078 70.8067 3.23121C71.0622 2.73958 71.4097 2.36353 71.8492 2.10312C72.2886 1.84272 72.7865 1.71248 73.342 1.71248C73.6968 1.71248 74.0268 1.76249 74.3312 1.86252C74.6363 1.96247 74.9079 2.10936 75.1466 2.3031C75.3853 2.4948 75.5809 2.7302 75.7342 3.00938C75.8897 3.28643 75.9919 3.60308 76.0394 3.95934ZM83.3657 1.79996V2.77185H80.423V8.19998H79.2689V1.79996H83.3657ZM84.3417 1.79996H85.487V6.16249H85.5462L88.5414 1.79996H89.5772V8.19998H88.4231V3.84061H88.3705L85.3651 8.19998H84.3417V1.79996ZM90.4211 9.74372V7.2531H90.8474C90.9905 7.13856 91.1241 6.97708 91.2489 6.76874C91.373 6.5604 91.4789 6.27498 91.5658 5.91249C91.6534 5.55001 91.7132 5.08126 91.7468 4.50626L91.9147 1.79996H95.9866V7.2531H96.6955V9.73749H95.5881V8.19998H91.5285V9.74372H90.4211ZM92.1914 7.2531H94.8792V2.77185H92.9535L92.8542 4.50626C92.8272 4.94164 92.7834 5.33126 92.7235 5.67497C92.6629 6.01876 92.5877 6.32184 92.4965 6.58438C92.4053 6.84478 92.303 7.06772 92.1914 7.2531ZM103.329 5.00001C103.329 5.68956 103.2 6.28019 102.943 6.77189C102.688 7.26146 102.34 7.63642 101.897 7.89682C101.458 8.1573 100.959 8.28747 100.402 8.28747C99.8439 8.28747 99.3439 8.1573 98.9022 7.89682C98.4628 7.63436 98.1139 7.25831 97.8569 6.76874C97.6021 6.27704 97.4744 5.68751 97.4744 5.00001C97.4744 4.31038 97.6021 3.72078 97.8569 3.23121C98.1139 2.73958 98.4628 2.36353 98.9022 2.10312C99.3439 1.84272 99.8439 1.71248 100.402 1.71248C100.959 1.71248 101.458 1.84272 101.897 2.10312C102.34 2.36353 102.688 2.73958 102.943 3.23121C103.2 3.72078 103.329 4.31038 103.329 5.00001ZM102.168 5.00001C102.168 4.51454 102.093 4.1052 101.941 3.77182C101.792 3.43647 101.585 3.18332 101.319 3.01246C101.054 2.83954 100.748 2.75307 100.402 2.75307C100.055 2.75307 99.7491 2.83954 99.4841 3.01246C99.2183 3.18332 99.0103 3.43647 98.8584 3.77182C98.7095 4.1052 98.6343 4.51454 98.6343 5.00001C98.6343 5.4854 98.7095 5.89585 98.8584 6.2312C99.0103 6.56457 99.2183 6.81772 99.4841 6.99064C99.7491 7.16143 100.055 7.24687 100.402 7.24687C100.748 7.24687 101.054 7.16143 101.319 6.99064C101.585 6.81772 101.792 6.56457 101.941 6.2312C102.093 5.89585 102.168 5.4854 102.168 5.00001ZM104.42 1.79996H105.832L107.724 6.43749H107.798L109.689 1.79996H111.102V8.19998H109.995V3.80313H109.935L108.175 8.18121H107.347L105.586 3.79375H105.527V8.19998H104.42V1.79996Z" fill="#222222"/>
</svg>
